<svg viewBox="0 0 613 300" fill="none" xmlns="http://www.w3.org/2000/svg">
<path d="M46.5054 31.4353C42.9693 29.3043 38.878 28.2388 34.2315 28.2388C32.7365 28.2388 28.7703 31.105 22.3328 36.8374L21.8752 36.2483C22.0308 34.8373 22.2688 33.3623 22.58 31.8326C22.8911 30.3028 23.0925 29.2982 23.1703 28.8279L22.1086 27.6497C20.8516 27.8872 18.0585 28.4367 13.7292 29.2982C9.39992 30.1598 5.02031 30.9117 0.590355 31.554L0 37.6776L0.45764 38.2667H2.00446C4.21029 38.2667 5.72508 38.7766 6.54883 39.7964C7.37258 40.8163 7.78293 42.6611 7.77988 45.3309V78.6658C7.77988 83.2322 7.58309 89.2385 7.18952 96.6849C7.11325 99.5891 6.73951 101.513 6.0683 102.457C5.3971 103.401 3.96469 103.948 1.77107 104.101L0.828328 111.288C1.69174 111.209 3.59858 111.072 6.54883 110.877C9.49908 110.682 12.3502 110.585 15.1021 110.585L24.6668 110.699C26.0031 110.778 27.5377 110.818 29.2706 110.818L30.5703 103.644L30.3369 103.187C29.8793 103.187 29.2157 103.224 28.3874 103.302C27.5591 103.379 26.598 103.42 25.4951 103.42C23.6646 103.42 22.525 102.872 22.0125 101.772C21.4999 100.671 21.2482 98.5114 21.2482 95.2967L21.1292 84.3373C21.8327 84.4505 22.5414 84.5282 23.2527 84.5701C24.2717 84.6493 25.2953 84.6889 26.3234 84.6889C32.3826 84.6889 37.7721 83.4133 42.4919 80.8622C47.1356 78.3861 50.9829 74.6501 53.5896 70.0855C56.2622 65.4521 57.6001 60.1124 57.6031 54.0665C57.6031 48.9612 56.639 44.4465 54.7108 40.5225C52.933 36.7527 50.0783 33.5913 46.5054 31.4353ZM39.4257 70.7659C37.29 73.6701 34.3001 75.1222 30.4559 75.1222C28.8294 75.1176 27.209 74.923 25.6278 74.5423C24.2659 74.2363 22.9253 73.8428 21.6143 73.3642C21.6143 62.5296 21.8508 52.5185 22.3237 43.3308C23.6971 42.2563 25.2047 41.3644 26.8085 40.6777C28.0688 40.0879 29.4319 39.7483 30.822 39.6777C34.3642 39.6777 37.2168 41.3855 39.3799 44.8012C41.543 48.2169 42.6246 52.7909 42.6246 58.5233C42.6154 63.7838 41.5491 67.8647 39.4257 70.7659Z" fill="#e2e2e2"/>
<path d="M91.5966 27.7822C86.5878 27.7236 81.6662 29.0923 77.4098 31.7276C73.1581 34.3587 69.6921 38.0805 67.3738 42.5043C64.8934 47.2237 63.6348 52.487 63.7126 57.8155C63.7126 66.2177 66.0924 72.8329 70.8518 77.6612C75.6113 82.4894 82.1326 84.9096 90.4159 84.9218C93.2472 84.9218 96.5727 84.0176 100.392 82.2093C103.945 80.5564 107.319 78.5443 110.461 76.2045L108.57 70.4325L107.747 69.9759C102.487 72.3291 97.8114 73.5057 93.7201 73.5057C89.0003 73.5057 85.3224 71.9942 82.6864 68.9713C80.0504 65.9483 78.6927 61.5706 78.6134 55.8382H109.184L110.602 54.4226C111.166 52.2703 111.443 50.0533 111.426 47.8287C111.426 34.4644 104.816 27.7822 91.5966 27.7822ZM96.6307 47.8059C96.3561 48.121 95.7474 48.3173 94.8001 48.395L78.6317 49.3357C79.0253 45.3324 80.1861 42.2699 82.1143 40.148C84.0425 38.0262 86.5412 36.9607 89.6105 36.9515C94.5499 36.9668 97.0197 39.8786 97.0197 45.6871C97.0197 46.7876 96.8869 47.4771 96.6124 47.8059H96.6307Z" fill="#e2e2e2"/>
<path d="M160.293 28.7229C159.391 28.6396 158.485 28.6015 157.579 28.6087C154.903 28.6087 152.091 29.6285 149.14 31.6682C146.19 33.7079 143.495 36.574 141.054 40.2668L140.344 39.8101C140.421 37.6791 140.598 35.4812 140.875 33.2162C141.15 30.933 141.37 29.4443 141.525 28.7366L140.463 27.6771C139.206 27.9146 136.393 28.4641 132.025 29.3256C127.656 30.1872 123.384 30.9726 119.211 31.6819L118.529 37.5589L119.119 38.3808L121.362 38.2667C123.325 38.2667 124.666 38.7553 125.375 39.7371C126.084 40.7188 126.437 42.5454 126.437 45.2168V68.6562C126.437 71.7187 126.023 73.7995 125.197 74.8985C124.37 75.9975 122.776 76.6261 120.414 76.7844L119.444 83.9628C120.31 83.8837 122.239 83.7862 125.229 83.6706C128.219 83.5549 131.208 83.4955 134.198 83.4925C137.347 83.4925 140.398 83.5518 143.351 83.6706C146.304 83.7893 148.33 83.8867 149.429 83.9628L150.728 76.1999L150.376 75.4921C149.594 75.6151 148.805 75.6943 148.014 75.7296C146.834 75.8087 145.653 75.8483 144.472 75.8483C142.742 75.8483 141.539 75.4556 140.871 74.6702C140.203 73.8847 139.868 72.4737 139.868 70.4279C139.945 67.4446 140.122 63.4596 140.399 58.4731C140.677 53.4865 140.854 49.8943 140.93 47.6963C142.046 46.1928 143.404 44.8842 144.948 43.824C146.116 42.966 147.513 42.4733 148.962 42.4084C149.547 42.3645 150.129 42.5217 150.612 42.8541C151.095 43.1864 151.449 43.6737 151.616 44.235C152.052 45.4527 152.269 47.9459 152.266 51.7148L159.822 51.2581C160.057 47.2153 160.45 42.9823 161.002 38.5589C161.555 34.1356 161.948 31.2435 162.183 29.8827L161.725 28.942C161.255 28.83 160.776 28.7567 160.293 28.7229Z" fill="#e2e2e2"/>
<path d="M175.757 46.1574C172.922 46.1574 170.634 47.0403 168.892 48.806C167.15 50.5716 166.291 52.8685 166.315 55.6967C166.315 58.3665 167.063 60.4869 168.558 62.0577C170.053 63.6285 172.218 64.414 175.052 64.414C177.883 64.414 180.171 63.5296 181.916 61.7609C183.662 59.9922 184.527 57.6968 184.511 54.8747C184.511 52.2018 183.749 50.0815 182.223 48.5137C180.698 46.9459 178.542 46.1605 175.757 46.1574Z" fill="#e2e2e2"/>
<path d="M224.568 55.8154C222.088 54.0893 218.528 52.1257 213.887 49.9247C210.97 48.5122 208.884 47.1773 207.627 45.92C207.05 45.3981 206.585 44.7647 206.261 44.0582C205.937 43.3518 205.76 42.5869 205.741 41.8102C205.741 40.3215 206.449 39.0856 207.865 38.1023C209.401 37.0865 211.217 36.5727 213.059 36.6319C215.893 36.6319 217.978 37.2788 219.315 38.5726C220.651 39.8664 221.319 41.8893 221.319 44.6414L221.205 46.7602L227.813 46.3035C228.118 43.0827 228.532 39.9608 229.053 36.9378C229.566 33.9149 229.895 31.9741 230.056 31.1065L229.465 29.9284C229.16 29.8492 228.432 29.6346 227.282 29.2845C225.753 28.8435 224.195 28.5079 222.619 28.2799C220.509 27.9617 218.378 27.8091 216.244 27.8233C211.925 27.7455 207.634 28.5214 203.618 30.1065C199.914 31.6286 197.041 33.7489 195 36.4675C192.958 39.158 191.877 42.4536 191.93 45.8286C191.885 49.0165 193.026 52.1078 195.133 54.5048C197.269 56.9798 200.692 59.3163 205.403 61.5143C210.125 63.7945 213.274 65.5814 214.848 66.8753C216.422 68.1691 217.21 69.6014 217.21 71.1723C217.21 72.667 216.462 73.903 214.967 74.8802C213.472 75.8574 211.584 76.3491 209.302 76.3551C202.373 76.3551 198.864 72.3976 198.776 64.4825L192.282 65.0715C192.126 67.6622 191.911 70.3701 191.637 73.1952C191.362 76.0203 191.066 78.4938 190.749 80.6156L191.458 81.7937C191.769 81.9536 192.598 82.2869 193.934 82.7984C195.723 83.432 197.559 83.9236 199.426 84.2688C201.974 84.7429 204.563 84.9616 207.155 84.9217C211.327 84.968 215.464 84.1663 219.315 82.5655C223.012 80.9946 225.925 78.8743 228.051 76.2045C230.116 73.7218 231.248 70.5989 231.255 67.373C231.311 65.1813 230.804 63.0118 229.781 61.0713C228.78 59.2965 227.043 57.5445 224.568 55.8154Z" fill="#e2e2e2"/>
<path d="M284.469 31.4353C280.93 29.3043 276.839 28.2388 272.195 28.2388C270.7 28.2388 266.734 31.105 260.296 36.8374L259.839 36.2483C259.994 34.8373 260.232 33.3623 260.544 31.8326C260.855 30.3028 261.056 29.2982 261.134 28.8279L260.072 27.6497C258.815 27.8872 256.022 28.4367 251.693 29.2982C247.364 30.1598 242.996 30.9071 238.591 31.5403L237.973 37.6776L238.43 38.2667H239.963C242.169 38.2667 243.684 38.7766 244.508 39.7964C245.332 40.8163 245.747 42.6611 245.753 45.3309V78.6658C245.753 83.2322 245.556 89.2385 245.162 96.6848C245.083 99.5891 244.709 101.513 244.041 102.457C243.373 103.401 241.937 103.948 239.735 104.101L238.792 111.284C239.658 111.205 241.565 111.068 244.512 110.873C247.46 110.678 250.312 110.58 253.07 110.58L262.635 110.695C263.971 110.774 265.506 110.813 267.239 110.813L268.534 103.644L268.301 103.187C267.843 103.187 267.179 103.224 266.351 103.302C265.523 103.379 264.562 103.42 263.459 103.42C261.628 103.42 260.489 102.872 259.976 101.772C259.464 100.671 259.212 98.5114 259.212 95.2967L259.093 84.3373C259.796 84.4505 260.505 84.5282 261.216 84.5701C262.238 84.6493 263.262 84.6889 264.287 84.6889C270.346 84.6889 275.736 83.4133 280.455 80.8622C285.099 78.3861 288.947 74.6501 291.553 70.0855C294.226 65.4521 295.564 60.1124 295.567 54.0665C295.567 48.9612 294.603 44.4465 292.674 40.5225C290.897 36.7527 288.042 33.5913 284.469 31.4353ZM277.389 70.7659C275.254 73.6701 272.264 75.1222 268.42 75.1222C266.796 75.1169 265.179 74.9223 263.601 74.5423C262.239 74.2363 260.898 73.8428 259.587 73.3642C259.587 62.5296 259.824 52.5185 260.296 43.3308C261.67 42.2563 263.177 41.3644 264.781 40.6777C266.042 40.0879 267.405 39.7483 268.795 39.6777C272.337 39.6777 275.19 41.3855 277.353 44.8012C279.516 48.2169 280.597 52.7909 280.597 58.5233C280.582 63.7838 279.513 67.8647 277.389 70.7659Z" fill="#e2e2e2"/>
<path d="M329.56 27.7822C324.551 27.7236 319.63 29.0923 315.373 31.7276C311.122 34.3581 307.658 38.0801 305.342 42.5043C302.86 47.2231 301.601 52.4868 301.681 57.8155C301.681 66.2177 304.061 72.8329 308.82 77.6612C313.579 82.4894 320.099 84.9096 328.379 84.9218C331.214 84.9218 334.539 84.0176 338.356 82.2093C341.909 80.5564 345.283 78.5443 348.424 76.2045L346.534 70.4325L345.71 69.9759C340.451 72.3291 335.775 73.5057 331.684 73.5057C326.967 73.5057 323.289 71.9942 320.65 68.9713C318.011 65.9483 316.653 61.5706 316.577 55.8382H347.147L348.566 54.4226C349.129 52.2703 349.406 50.0533 349.39 47.8287C349.39 34.4644 342.78 27.7822 329.56 27.7822ZM334.594 47.8059C334.32 48.1103 333.709 48.3067 332.764 48.395L316.591 49.3357C316.984 45.3324 318.145 42.2699 320.073 40.148C322.002 38.0262 324.5 36.9607 327.569 36.9515C332.518 36.9668 334.992 39.8786 334.992 45.6871C334.992 46.7876 334.851 47.4771 334.576 47.8059H334.594Z" fill="#e2e2e2"/>
<path d="M397.785 49.3357C397.941 46.4314 398.217 43.6444 398.614 40.9746C399.01 38.3047 399.384 36.125 399.735 34.4354C400.087 32.7504 400.302 31.6682 400.385 31.1979L399.927 30.1384C399.14 29.8283 398.333 29.572 397.511 29.3713C395.759 28.9241 393.986 28.566 392.197 28.2982C389.795 27.934 387.369 27.7569 384.939 27.7685C379.746 27.6875 374.627 29.0098 370.125 31.5951C365.775 34.1197 362.229 37.821 359.897 42.2714C357.456 46.8378 356.236 52.0131 356.236 57.7972C356.236 66.1994 358.558 72.8147 363.201 77.6429C367.845 82.4711 374.179 84.8974 382.203 84.9218C384.338 84.9218 386.7 84.2733 389.287 82.9765C391.67 81.8098 393.964 80.4714 396.151 78.9717C398.119 77.6018 399.355 76.6885 399.927 76.2045L398.041 70.1996L397.213 69.8434C396.897 70.0033 396.133 70.3549 394.925 70.9029C393.433 71.5494 391.894 72.0822 390.321 72.4965C388.456 73.0086 386.53 73.2652 384.596 73.2591C380.425 73.2591 377.199 71.5315 374.917 68.0762C372.635 64.621 371.494 59.674 371.494 53.2354C371.494 48.2123 372.458 44.3461 374.386 41.6367C376.314 38.9273 379.127 37.5726 382.825 37.5726C385.186 37.5726 387.017 38.2986 388.317 39.7508C389.616 41.2029 390.265 43.2639 390.262 45.9337V49.8197L397.785 49.3357Z" fill="#e2e2e2"/>
<path d="M416.082 46.1574C413.247 46.1574 410.959 47.0403 409.217 48.806C407.475 50.5716 406.616 52.8685 406.641 55.6967C406.641 58.3665 407.388 60.4869 408.883 62.0577C410.378 63.6285 412.543 64.414 415.377 64.414C418.211 64.414 420.499 63.5296 422.241 61.7609C423.984 59.9922 424.85 57.6968 424.841 54.8747C424.841 52.2018 424.078 50.0815 422.553 48.5137C421.027 46.9459 418.87 46.1605 416.082 46.1574Z" fill="#e2e2e2"/>
<path d="M460.999 72.7751C459.608 73.2353 458.153 73.4742 456.688 73.4829C454.012 73.4829 452.084 72.737 450.903 71.2453C449.723 69.7536 449.132 67.3182 449.132 63.9391C449.132 53.6525 449.369 45.0935 449.842 38.2621L463.772 38.6137L464.962 30.7275L464.504 30.1384L450.579 30.4901C450.81 27.8233 451.067 25.5857 451.347 23.7774C451.622 21.9509 451.805 20.8321 451.878 20.3617L448.542 18.7087C448.072 19.1014 446.873 20.004 444.945 21.4166C443.017 22.8291 440.596 24.4609 437.682 26.3118C434.836 28.1214 431.88 29.7533 428.831 31.1978L428.003 36.9744L429.184 37.8009C431.701 37.88 433.393 38.3367 434.259 39.1708C435.126 40.0049 435.559 41.6793 435.559 44.1939V70.4599C435.559 75.486 436.857 79.1574 439.453 81.4741C442.05 83.7908 446.142 84.94 451.732 84.9218C452.754 84.9218 454.269 84.2337 456.276 82.8577C458.237 81.5111 460.128 80.0663 461.942 78.5288C463.711 77.0371 464.832 76.0553 465.305 75.5834L463.772 71.8161C463.374 71.9897 462.454 72.3047 460.999 72.7751Z" fill="#e2e2e2"/>
<path d="M483.126 17.6539C485.872 17.6539 488.096 16.7893 489.798 15.0601C491.501 13.331 492.346 11.0934 492.334 8.34749C492.334 5.83596 491.626 3.81456 490.21 2.28329C488.794 0.752018 486.827 -0.00905161 484.307 8.12209e-05C481.472 8.12209e-05 479.21 0.863134 477.52 2.58924C475.83 4.31535 474.984 6.59856 474.984 9.43887C474.984 11.9565 475.692 13.9596 477.108 15.4483C478.524 16.9369 480.529 17.6721 483.126 17.6539Z" fill="#e2e2e2"/>
<path d="M496.645 76.1908C495.958 76.2701 495.267 76.3097 494.576 76.3095C493.24 76.3095 492.288 75.9168 491.743 75.1314C491.199 74.3459 490.919 73.0125 490.919 71.1266C490.919 60.6817 491.174 51.593 491.684 43.8605C492.193 36.1281 492.883 31.3973 493.752 29.6681L492.69 27.7822C491.351 28.0866 488.399 28.6559 483.835 29.49C479.271 30.3241 474.786 31.0502 470.381 31.6682L469.671 38.3808C470.015 38.2614 470.371 38.1832 470.733 38.1479C471.28 38.0698 471.832 38.0301 472.385 38.0292C474.274 38.0292 475.572 38.5011 476.28 39.4448C476.987 40.3885 477.343 42.1162 477.346 44.6277V70.0672C477.346 72.2652 476.813 73.9395 475.749 75.0903C474.684 76.241 473.006 77.0021 470.715 77.3735L469.772 84.7939C470.715 84.6341 472.742 84.3829 475.849 84.0267C478.612 83.6957 481.391 83.5188 484.174 83.497C486.846 83.497 489.463 83.5366 492.022 83.6158C494.582 83.6949 496.294 83.7741 497.157 83.8532L498.338 76.6657L497.981 76.0766C497.766 76.072 497.313 76.1131 496.645 76.1908Z" fill="#e2e2e2"/>
<path d="M533.411 29.079L532.583 35.44L533.041 36.262H536.354C537.846 36.262 538.871 36.4218 539.42 36.7186C539.969 37.0155 540.248 37.6639 540.248 38.6046C540.248 39.7066 539.461 42.5987 537.887 47.2808C536.313 51.9629 533.597 59.5994 529.741 70.1905H528.574C527.787 67.204 526.351 61.5493 524.268 53.2262C522.184 44.9032 521.14 40.075 521.137 38.7416C521.137 37.7217 521.493 37.0155 522.204 36.6227C522.915 36.23 524.487 35.915 526.922 35.6775L527.984 28.9649L527.75 28.3758C526.808 28.4534 524.698 28.6132 521.435 28.8324C518.172 29.0516 514.923 29.1886 511.696 29.1886L500.603 29.0699L499.775 35.6638L500.013 36.1204C503.711 36.2787 506.151 38.2423 507.335 42.0111C508.516 45.7069 510.621 52.9112 513.65 63.624C516.68 74.3368 518.706 81.5411 519.728 85.2368L534.83 83.4696L549.703 43.0705C550.728 40.3307 551.635 38.5361 552.422 37.7141C553.209 36.8922 554.467 36.3442 556.197 36.1204L557.14 29.0562L546.399 29.1749L533.411 29.079Z" fill="#e2e2e2"/>
<path d="M604.469 54.3998C605.036 52.2481 605.315 50.0308 605.297 47.8059C605.297 34.4567 598.687 27.7822 585.468 27.7822C580.459 27.7236 575.537 29.0923 571.281 31.7276C567.029 34.3587 563.563 38.0805 561.245 42.5043C558.765 47.2237 557.506 52.487 557.584 57.8155C557.584 66.2177 559.964 72.8329 564.723 77.6612C569.483 82.4894 576.004 84.9096 584.287 84.9218C587.121 84.9218 590.445 84.0176 594.259 82.2093C597.821 80.5578 601.204 78.5456 604.355 76.2045L602.465 70.4325L601.636 69.9759C596.364 72.3291 591.689 73.5057 587.61 73.5057C582.887 73.5057 579.207 71.9942 576.571 68.9713C573.935 65.9483 572.578 61.5706 572.498 55.8382H603.073L604.469 54.3998ZM590.484 47.8059C590.209 48.121 589.6 48.3173 588.653 48.395L572.48 49.3357C572.874 45.3324 574.035 42.2699 575.963 40.148C576.903 39.1025 578.062 38.2748 579.357 37.7226C580.651 37.1705 582.051 36.9073 583.459 36.9515C588.42 36.9515 590.899 39.8573 590.895 45.6688C590.895 46.7876 590.758 47.4771 590.484 47.8059Z" fill="#e2e2e2"/>
<path d="M419.363 108.347C420.165 108.295 420.962 108.51 421.628 108.959L422.049 110.644H423.358L424.086 107.352C422.861 106.698 421.483 106.382 420.095 106.439C415.976 106.439 412.915 110.119 412.915 115.06C412.915 119.658 415.409 121.955 419.592 121.955C421.019 121.949 422.427 121.621 423.71 120.996L423.367 119.736C422.619 119.928 421.851 120.031 421.079 120.042C417.876 120.042 416.013 118.316 416.013 114.293C416.013 111.96 416.434 109.85 417.011 108.813C417.763 108.528 418.558 108.371 419.363 108.347Z" fill="#e2e2e2"/>
<path d="M433.184 106.43C428.388 106.43 425.93 110.571 425.93 115.051C425.93 119.229 428.31 121.946 432.726 121.946C437.023 121.946 440.048 118.156 440.048 113.403C440.057 109.306 437.6 106.43 433.184 106.43ZM433.303 120.261C430.96 120.261 429.001 118.156 429.001 114.211C429.001 109.996 430.227 108.119 432.662 108.119C434.95 108.119 437 110.338 437 114.211C436.987 118.846 435.568 120.261 433.303 120.261Z" fill="#e2e2e2"/>
<path d="M458.555 102.37C459.084 102.252 459.625 102.201 460.166 102.219C461.205 102.227 462.239 102.368 463.241 102.639L464.083 99.8448H463.855C457.979 99.8448 455.329 101.489 455.214 106.891H447.929V106.087C447.929 104.261 448.084 103.174 448.386 102.37C448.953 102.247 449.533 102.196 450.112 102.219C450.912 102.21 451.707 102.353 452.455 102.639L453.452 99.8448H453.375C447.695 99.8448 445.201 101.644 445.046 106.891H442.172L441.865 107.964L445.069 108.731V118.777C445.069 119.809 444.611 120.193 443.416 120.426L443.151 121.572H450.405L450.633 120.426L447.947 119.887V108.731H455.242V118.777C455.242 119.809 454.784 120.193 453.59 120.426L453.283 121.572H460.578L460.811 120.426L458.12 119.887V108.731H461.617L461.96 106.904H458.098V106.101C458.098 104.247 458.258 103.187 458.555 102.37Z" fill="#e2e2e2"/>
<path d="M470.852 106.43C466.514 106.43 463.672 110.11 463.672 115.051C463.672 119.458 466.358 121.946 470.353 121.946C471.954 121.969 473.536 121.6 474.962 120.873L474.614 119.686C473.793 119.941 472.938 120.071 472.078 120.069C468.587 120.069 466.861 118.307 466.742 114.284H475.19C475.575 113.292 475.796 112.245 475.845 111.183C475.845 108.119 473.964 106.43 470.852 106.43ZM472.811 112.599L466.742 113.055C466.871 111.488 467.317 109.963 468.051 108.571C468.774 108.196 469.575 107.999 470.39 107.996C471.813 107.996 472.962 108.996 472.962 110.987C472.964 111.528 472.913 112.068 472.811 112.599Z" fill="#e2e2e2"/>
<path d="M485.483 106.43C481.144 106.43 478.302 110.11 478.302 115.051C478.302 119.458 480.989 121.946 484.979 121.946C486.58 121.969 488.162 121.6 489.588 120.873L489.245 119.686C488.424 119.941 487.569 120.071 486.709 120.069C483.217 120.069 481.487 118.307 481.373 114.284H489.821C490.204 113.292 490.424 112.245 490.471 111.183C490.471 108.119 488.59 106.43 485.483 106.43ZM487.437 112.599L481.373 113.055C481.503 111.489 481.946 109.964 482.677 108.571C483.402 108.197 484.205 108 485.02 107.996C486.439 107.996 487.592 108.996 487.592 110.987C487.593 111.528 487.541 112.068 487.437 112.599Z" fill="#e2e2e2"/>
<path d="M510.9 108.923C510.708 107.311 510.09 106.548 509.326 106.548C508.287 106.548 506.676 107.389 505.102 109.151L504.411 106.548L500.109 107.197L499.843 108.311L502.415 108.882V118.768C502.415 119.8 501.958 120.184 500.763 120.417L500.493 121.563H507.523L507.756 120.417L505.299 119.878V110.188L510.9 108.923Z" fill="#e2e2e2"/>
<path d="M519.037 106.43C514.241 106.43 511.783 110.571 511.783 115.051C511.783 119.229 514.163 121.946 518.579 121.946C522.877 121.946 525.902 118.156 525.902 113.403C525.911 109.306 523.453 106.43 519.037 106.43ZM519.156 120.261C516.813 120.261 514.854 118.156 514.854 114.211C514.854 109.996 516.081 108.119 518.515 108.119C520.803 108.119 522.854 110.338 522.854 114.211C522.84 118.846 521.421 120.261 519.156 120.261Z" fill="#e2e2e2"/>
<path d="M539.658 111.64C539.658 108.443 537.544 106.507 534.894 106.507C532.751 106.492 530.657 107.149 528.908 108.384L530.482 110.571C532.093 109.151 533.553 108.233 534.665 107.886C535.97 108.425 536.78 109.713 536.78 112.138V112.713C533.013 113.211 530.748 114.019 529.599 114.937C529.216 115.282 528.911 115.705 528.706 116.178C528.501 116.65 528.4 117.162 528.409 117.677C528.38 118.234 528.468 118.792 528.667 119.313C528.867 119.835 529.173 120.309 529.567 120.705C529.961 121.102 530.434 121.412 530.955 121.615C531.475 121.819 532.033 121.911 532.592 121.887C533.429 121.866 534.253 121.668 535.007 121.305C535.761 120.942 536.43 120.423 536.967 119.782C537.352 121.275 538.235 121.887 539.466 121.887C539.91 121.845 540.341 121.715 540.734 121.505C541.127 121.295 541.474 121.009 541.754 120.663V120.165L539.644 119.59L539.658 111.64ZM533.668 119.859C532.057 119.859 531.288 118.9 531.288 117.257C531.266 116.531 531.41 115.809 531.709 115.147C532.592 114.727 534.78 114.38 536.78 114.38V115.973C536.78 117.01 536.816 117.891 536.816 118.467C536.432 118.924 535.95 119.289 535.404 119.533C534.859 119.777 534.265 119.895 533.668 119.878V119.859Z" fill="#e2e2e2"/>
<path d="M549.333 108.119C550.243 108.1 551.139 108.353 551.905 108.845L552.289 110.453H553.442L554.206 107.389C552.87 106.736 551.397 106.408 549.909 106.43C546.706 106.43 544.61 108.653 544.61 110.8C544.61 112.448 545.342 113.594 548.106 115.051C551.099 116.622 551.767 117.426 551.767 118.462C551.767 119.499 551.076 120.261 549.383 120.261C548.12 120.299 546.883 119.892 545.891 119.111L545.507 117.042H544.354L543.548 120.375C545.313 121.357 547.29 121.896 549.31 121.946C552.147 121.946 554.184 120.184 554.184 117.617C554.184 115.818 553.3 114.553 550.23 112.868C547.484 111.375 546.852 110.722 546.852 109.804C546.874 109.346 547.006 108.899 547.237 108.503C547.907 108.251 548.617 108.121 549.333 108.119Z" fill="#e2e2e2"/>
<path d="M563.501 119.764C562.156 119.764 561.735 119.266 561.735 116.928V108.731H565.46L565.959 106.904H561.735V102.639L558.856 103.137V106.891H555.978L555.671 107.964L558.874 108.731V118.001C558.874 121.065 560.293 121.832 562.174 121.832C563.669 121.829 565.129 121.375 566.361 120.531L565.904 119.188C565.154 119.55 564.334 119.746 563.501 119.764Z" fill="#e2e2e2"/>
<path d="M575.212 106.43C570.874 106.43 568.032 110.11 568.032 115.051C568.032 119.458 570.718 121.946 574.713 121.946C576.313 121.969 577.893 121.6 579.317 120.873L578.974 119.686C578.153 119.941 577.298 120.071 576.439 120.069C572.947 120.069 571.217 118.307 571.103 114.284H579.551C579.934 113.292 580.153 112.245 580.2 111.183C580.2 108.119 578.32 106.43 575.212 106.43ZM577.171 112.599L571.103 113.055C571.232 111.489 571.676 109.964 572.407 108.571C573.131 108.197 573.934 108 574.75 107.996C576.173 107.996 577.322 108.996 577.322 110.987C577.322 111.528 577.271 112.067 577.171 112.599Z" fill="#e2e2e2"/>
<path d="M593.335 108.923C593.143 107.311 592.529 106.548 591.76 106.548C590.722 106.548 589.111 107.389 587.536 109.151L586.845 106.548L582.544 107.197L582.278 108.311L584.85 108.882V118.768C584.85 119.8 584.392 120.184 583.198 120.417L582.928 121.563H589.957L590.186 120.417L587.729 119.878V110.188L593.335 108.923Z" fill="#e2e2e2"/>
<path d="M600.744 112.868C597.998 111.375 597.366 110.722 597.366 109.804C597.388 109.346 597.52 108.899 597.751 108.503C598.425 108.25 599.14 108.12 599.861 108.119C600.771 108.1 601.667 108.353 602.433 108.845L602.817 110.453H603.97L604.739 107.389C603.401 106.736 601.927 106.408 600.437 106.43C597.234 106.43 595.138 108.653 595.138 110.8C595.138 112.448 595.87 113.594 598.634 115.051C601.627 116.622 602.295 117.426 602.295 118.462C602.295 119.499 601.604 120.261 599.916 120.261C598.651 120.3 597.413 119.893 596.419 119.111L596.035 117.042H594.886L594.076 120.375C595.841 121.357 597.818 121.896 599.838 121.946C602.68 121.946 604.712 120.184 604.712 117.617C604.698 115.818 603.815 114.553 600.744 112.868Z" fill="#e2e2e2"/>
<path d="M2.16919 274.816C2.60126 275.12 3.06091 275.383 3.54211 275.602L4.85096 273.684C5.18288 274.039 5.54926 274.36 5.94472 274.643C6.3038 274.917 6.69208 275.152 7.10255 275.341L8.86904 273.003C8.41133 272.765 7.97363 272.49 7.56019 272.181C7.09618 271.855 6.67224 271.474 6.2971 271.049L4.79604 273.195C4.39506 272.957 4.02204 272.676 3.68398 272.355C3.34391 272.032 3.03019 271.682 2.74582 271.309L0.979326 273.647C1.30546 274.102 1.70801 274.498 2.16919 274.816Z" fill="#e2e2e2"/>
<path d="M8.73176 280.638C8.20733 279.909 7.60251 279.242 6.92866 278.647C6.31015 278.081 5.60388 277.619 4.83724 277.277L4.14621 279.346C2.92271 280.222 1.91232 281.361 1.18985 282.68C0.558618 283.796 0.21576 285.051 0.192199 286.333C0.167018 286.964 0.267731 287.593 0.48849 288.185C0.709249 288.777 1.04565 289.319 1.47817 289.78C1.93044 290.235 2.47341 290.589 3.07183 290.82C3.67024 291.052 4.31071 291.155 4.95165 291.123C5.70799 291.13 6.45805 290.986 7.15748 290.698C7.81888 290.432 8.41513 290.027 8.90566 289.511C9.40768 288.977 9.8023 288.353 10.0681 287.671C10.3471 286.942 10.4868 286.168 10.4799 285.387C10.4765 284.569 10.3213 283.757 10.0223 282.995C9.69751 282.156 9.26361 281.364 8.73176 280.638ZM7.25358 287.671C6.53949 287.982 5.76728 288.137 4.98826 288.127C4.281 288.137 3.58886 287.923 3.01126 287.515C2.72578 287.307 2.49708 287.031 2.34601 286.712C2.19493 286.393 2.12628 286.041 2.14632 285.689C2.13517 284.843 2.34158 284.008 2.74583 283.264C3.2637 282.363 3.97092 281.584 4.81894 280.981C5.83041 281.555 6.69624 282.353 7.34969 283.314C8.01731 284.255 8.51167 285.306 8.80956 286.419C8.41051 286.966 7.87371 287.398 7.25358 287.671Z" fill="#e2e2e2"/>
<path d="M48.9675 278.127C48.5392 277.426 47.978 276.815 47.3154 276.328C46.7888 275.924 46.1485 275.696 45.4848 275.675C44.9451 275.67 44.4167 275.829 43.9701 276.131C43.4804 276.466 43.0517 276.881 42.7024 277.36C42.327 277.869 42.0294 278.43 41.8192 279.026C41.6098 279.604 41.4999 280.212 41.4942 280.826C41.4881 281.429 41.5984 282.027 41.8192 282.588C42.0133 283.113 42.3035 283.598 42.6749 284.018C43.0483 284.411 43.5005 284.723 44.0021 284.931C44.5238 285.148 45.0842 285.259 45.6496 285.255C46.254 285.24 46.8464 285.083 47.3795 284.798C47.9245 284.537 48.4079 284.163 48.7982 283.702C48.847 283.986 48.8927 284.337 48.9355 284.757C48.9721 285.177 49.0178 285.62 49.0682 286.082C47.9761 286.826 46.7399 287.335 45.4391 287.575C43.7149 287.925 41.9585 288.092 40.1991 288.072C39.3456 288.053 38.4982 288.22 37.7158 288.56C36.9334 288.901 36.2347 289.408 35.6685 290.045C34.4664 291.373 33.7632 293.275 33.5588 295.753C32.9978 295.538 32.4778 295.23 32.0211 294.84C31.042 294.022 30.2599 292.996 29.7329 291.835C29.4913 291.305 29.3235 290.744 29.2341 290.168C30.1707 289.829 31.0657 289.385 31.9021 288.844C32.6631 288.36 33.3597 287.781 33.9752 287.123C34.527 286.535 34.9812 285.863 35.3207 285.132C35.625 284.464 35.7811 283.738 35.7783 283.004C35.8095 281.904 35.4959 280.821 34.8813 279.908C34.2528 278.994 33.1591 278.093 31.6001 277.204C30.9525 277.832 30.3727 278.525 29.8702 279.273C29.3265 280.086 28.8665 280.952 28.4973 281.858C28.1092 282.81 27.7941 283.79 27.5545 284.789C27.3149 285.796 27.1799 286.824 27.1518 287.858C26.8726 287.908 26.5386 287.958 26.1541 288.009C25.7733 288.059 25.3896 288.085 25.0055 288.086H22.9964C22.9261 287.165 22.7338 286.258 22.4244 285.387C22.1602 284.636 21.7987 283.922 21.3489 283.264C20.9743 282.713 20.4974 282.239 19.944 281.867C19.4802 281.549 18.9323 281.376 18.3697 281.369C17.8768 281.382 17.399 281.541 16.9968 281.826C16.5157 282.153 16.0946 282.561 15.752 283.031C15.3748 283.541 15.077 284.104 14.8687 284.702C14.6554 285.279 14.5439 285.887 14.5392 286.502C14.5379 287.085 14.6693 287.661 14.9237 288.187C15.2046 288.751 15.6117 289.243 16.1135 289.625C16.723 290.08 17.4054 290.429 18.1317 290.657C19.0572 290.95 20.0211 291.104 20.992 291.114C20.7903 291.702 20.4799 292.247 20.0767 292.721C19.5456 293.363 18.9298 293.93 18.2461 294.406C17.3337 295.044 16.3639 295.596 15.3493 296.055C14.0192 296.653 12.6415 297.141 11.2305 297.511L11.7659 298.278L16.681 298.89C18.2909 298.085 19.6914 296.917 20.7723 295.479C21.7444 294.186 22.4194 292.696 22.7493 291.114H24.978C25.3846 291.114 25.7899 291.068 26.1862 290.977L27.2799 290.73C27.573 292.654 28.3755 294.466 29.6047 295.977C31.0629 297.762 32.953 299.146 35.0964 300L37.3251 297.47C36.6749 297.265 36.1176 296.838 35.7508 296.265C35.4237 295.687 35.2474 295.037 35.2383 294.374C35.2227 293.722 35.3266 293.072 35.5449 292.456C36.0319 291.991 36.6236 291.65 37.2702 291.461C38.2211 291.203 39.2051 291.087 40.19 291.118C41.9563 291.146 43.7185 290.939 45.4299 290.502C46.7837 290.169 48.0486 289.545 49.1368 288.675C49.6547 288.233 50.0397 287.656 50.2489 287.009C50.5081 286.119 50.6255 285.195 50.5967 284.269C50.6074 283.116 50.4533 281.967 50.139 280.858C49.8773 279.898 49.483 278.978 48.9675 278.127ZM47.352 282.342C46.8894 282.467 46.4126 282.531 45.9333 282.533C45.2756 282.549 44.6239 282.404 44.0341 282.113C43.4789 281.837 43.0337 281.382 42.771 280.821C42.9469 280.205 43.2777 279.644 43.7321 279.191C43.9306 278.985 44.1686 278.821 44.432 278.709C44.6954 278.596 44.9788 278.538 45.2652 278.538C45.9904 278.574 46.6731 278.89 47.169 279.419C47.8392 280.091 48.2646 280.967 48.3771 281.908C48.0602 282.114 47.7082 282.261 47.3383 282.342H47.352ZM19.6785 288.091C18.842 288.115 18.0101 287.959 17.2393 287.634C16.6436 287.411 16.1471 286.984 15.8389 286.429C15.9541 285.838 16.2574 285.299 16.7039 284.894C17.0989 284.507 17.6286 284.288 18.1821 284.282C18.5743 284.297 18.9578 284.403 19.3012 284.592C19.6447 284.782 19.9386 285.05 20.1591 285.374C20.7645 286.175 21.1537 287.119 21.2894 288.114L19.6785 288.091ZM29.289 285.657C29.4033 284.972 29.5561 284.293 29.7466 283.625C29.9174 283.003 30.1283 282.393 30.3782 281.798C30.5737 281.303 30.8223 280.83 31.1195 280.387C31.9839 280.814 32.7601 281.4 33.4077 282.113C33.9757 282.685 34.4033 283.381 34.6571 284.145C34.0879 285.045 33.3269 285.809 32.4284 286.383C31.4219 287.049 30.2818 287.489 29.0876 287.671C29.1005 286.995 29.1678 286.322 29.289 285.657Z" fill="#e2e2e2"/>
<path d="M42.2127 272.821C42.6438 273.126 43.1036 273.389 43.5856 273.606L44.8853 271.688C45.2162 272.044 45.5827 272.366 45.9791 272.647C46.3429 272.919 46.7358 273.151 47.1506 273.337L48.9126 270.999C48.456 270.759 48.0199 270.482 47.6083 270.172C47.144 269.846 46.7187 269.467 46.3406 269.044L44.8487 271.195C44.4467 270.957 44.0735 270.674 43.7366 270.35C43.3892 270.032 43.0678 269.687 42.7756 269.318L41.0091 271.652C41.3366 272.11 41.7443 272.506 42.2127 272.821Z" fill="#e2e2e2"/>
<path d="M64.8293 272.601C65.2597 272.908 65.7196 273.171 66.2022 273.387L67.5065 271.474C67.8397 271.826 68.206 272.145 68.6002 272.428C68.9642 272.7 69.3571 272.931 69.7718 273.117L71.5291 270.775C71.0746 270.532 70.6387 270.256 70.2248 269.948C69.7606 269.622 69.3353 269.243 68.9572 268.82L67.4607 270.967C67.0574 270.729 66.6828 270.445 66.3441 270.122C65.9979 269.803 65.6781 269.456 65.3876 269.085L63.6119 271.423C63.9438 271.886 64.3561 272.285 64.8293 272.601Z" fill="#e2e2e2"/>
<path d="M147.63 284.474C147.327 283.814 146.933 283.199 146.458 282.648C146.001 282.114 145.457 281.661 144.848 281.31C144.308 280.981 143.69 280.801 143.058 280.789C142.305 280.795 141.584 281.091 141.045 281.616C140.214 282.483 139.521 283.471 138.99 284.547C138.221 285.926 137.48 286.864 136.766 287.36C136.099 287.84 135.3 288.102 134.477 288.109C133.785 288.109 133.093 288.071 132.404 287.995C131.802 287.932 131.208 287.797 130.638 287.593C130.173 287.43 129.753 287.161 129.411 286.808C129.096 286.448 128.932 285.98 128.954 285.502V285.31C128.953 285.244 128.965 285.179 128.99 285.118C129.392 284.956 129.811 284.841 130.24 284.776C130.959 284.684 131.684 284.646 132.409 284.661L133.37 281.976C132.395 281.976 131.539 281.976 130.835 281.903C130.166 281.855 129.499 281.772 128.839 281.652C128.239 281.549 127.648 281.396 127.073 281.195C126.508 280.995 125.881 280.739 125.192 280.428C124.237 279.959 123.256 279.544 122.254 279.186C121.644 278.966 121.003 278.843 120.355 278.821C119.802 278.852 119.264 279.009 118.78 279.278C118.126 279.61 117.549 280.077 117.087 280.647C116.73 281.049 116.423 281.492 116.172 281.967C116.002 282.281 115.904 282.629 115.884 282.985C115.885 283.114 115.905 283.242 115.943 283.365C115.979 283.49 116.038 283.608 116.117 283.712C116.738 283.283 117.384 282.892 118.053 282.543C118.683 282.204 119.345 281.928 120.03 281.721C121.177 281.84 122.31 282.07 123.412 282.41C124.608 282.765 125.766 283.24 126.867 283.826V283.867C125.764 284.629 124.743 285.287 123.796 285.84C122.892 286.367 121.941 286.809 120.954 287.159C120 287.494 119.016 287.738 118.016 287.89C116.916 288.048 115.805 288.124 114.694 288.118C114.358 288.119 114.023 288.081 113.696 288.004C113.376 287.916 113.068 287.787 112.781 287.62C112.415 287.408 112.073 287.157 111.76 286.872C111.336 286.483 110.939 286.066 110.57 285.625C109.936 284.842 109.194 284.153 108.365 283.579C107.815 283.239 107.181 283.059 106.534 283.059C105.852 283.078 105.186 283.27 104.598 283.616C103.767 284.115 103.032 284.756 102.424 285.511C102.044 285.966 101.641 286.402 101.216 286.817C100.917 287.111 100.589 287.374 100.237 287.602C99.948 287.786 99.6312 287.922 99.2987 288.004C98.9395 288.083 98.5727 288.121 98.2049 288.118C97.7111 288.123 97.2174 288.097 96.7268 288.041C96.3038 287.984 95.886 287.894 95.4774 287.771C95.926 287.171 96.3182 286.53 96.649 285.858C96.9107 285.385 97.0668 284.862 97.1066 284.323C97.1124 283.612 96.99 282.905 96.7451 282.237C96.5148 281.612 96.184 281.029 95.7657 280.511C95.3715 280.028 94.8884 279.625 94.3425 279.323C93.8279 279.03 93.2465 278.872 92.6538 278.867C91.6691 278.889 90.7029 279.137 89.8301 279.593C88.7893 280.118 87.8166 280.768 86.9333 281.529C85.9447 282.366 85.0264 283.282 84.1874 284.269C83.3384 285.25 82.573 286.301 81.8992 287.41C81.6558 287.249 81.4303 287.062 81.2265 286.853C80.984 286.611 80.7689 286.351 80.5172 286.068C80.2655 285.785 80.0595 285.506 79.8856 285.228C79.7181 284.991 79.5827 284.733 79.4829 284.46L78.7507 285.072C78.3913 286.016 77.7805 286.843 76.9842 287.465C76.2603 287.913 75.4187 288.134 74.5678 288.1C74.0426 288.111 73.5185 288.047 73.0119 287.908C72.595 287.785 72.222 287.546 71.9364 287.219C71.6015 286.814 71.3482 286.349 71.1905 285.849C70.9446 285.102 70.752 284.339 70.6138 283.565C70.4094 282.415 70.2111 281.425 70.0189 280.597C69.8267 279.769 69.6406 279.028 69.4606 278.373C69.2806 277.722 69.1021 277.147 68.9251 276.647C68.7421 276.15 68.5407 275.661 68.3073 275.172L66.6598 277.168L67.5751 279.501C66.1323 280.079 64.7446 280.785 63.4289 281.611C62.7131 282.036 62.0652 282.565 61.5068 283.182C61.2118 283.569 60.9844 284.003 60.8341 284.465C60.6874 284.865 60.604 285.286 60.5869 285.712C60.5967 286.134 60.7234 286.545 60.9531 286.899C61.211 287.324 61.5426 287.7 61.9324 288.009C62.3479 288.347 62.8103 288.624 63.3053 288.831C63.8018 289.047 64.3378 289.159 64.8796 289.159C65.3905 289.158 65.8971 289.067 66.3761 288.89C66.9642 288.64 67.4883 288.26 67.9092 287.78L68.9114 286.785C69.3202 288.392 69.9594 289.515 70.8289 290.155C71.6984 290.794 72.9402 291.114 74.5541 291.114C75.4897 291.141 76.4057 290.843 77.1444 290.269C77.9037 289.632 78.492 288.816 78.8559 287.894C79.6127 289.009 80.6757 289.883 81.9175 290.411C83.1504 290.906 84.4692 291.155 85.7983 291.141C86.5098 291.14 87.2206 291.094 87.9264 291.004C88.6503 290.919 89.3685 290.791 90.0773 290.621C90.7556 290.464 91.4235 290.266 92.0771 290.027C92.664 289.814 93.2345 289.56 93.7841 289.264C94.3684 289.872 95.0665 290.359 95.8389 290.698C96.5877 291.006 97.3906 291.161 98.2004 291.155C98.9126 291.175 99.6205 291.038 100.273 290.753C100.866 290.461 101.41 290.079 101.884 289.621C102.488 290.786 103.339 291.805 104.379 292.607C105.194 293.236 106.19 293.587 107.22 293.607C107.649 293.609 108.073 293.523 108.466 293.355C108.86 293.187 109.214 292.94 109.509 292.63C110.288 291.745 110.9 290.725 111.312 289.621C111.742 290.081 112.248 290.464 112.808 290.753C113.396 291.03 114.04 291.167 114.689 291.155C115.473 291.157 116.256 291.106 117.032 291C117.74 290.902 118.439 290.749 119.124 290.543C119.826 290.332 120.508 290.057 121.16 289.721C121.898 289.339 122.61 288.91 123.293 288.438L125 287.251C125.457 286.917 125.888 286.639 126.249 286.406C126.611 286.173 126.913 285.986 127.164 285.83C127.416 285.675 127.649 285.552 127.855 285.447L127.892 285.488C127.773 285.935 127.709 286.395 127.7 286.858C127.698 287.494 127.867 288.119 128.189 288.668C128.511 289.218 128.974 289.671 129.53 289.981C130.751 290.758 132.395 291.147 134.464 291.15C135.338 291.156 136.199 290.93 136.958 290.497C137.807 289.984 138.52 289.275 139.036 288.429C139.666 289.314 140.43 290.097 141.301 290.748C142.047 291.329 142.963 291.65 143.909 291.662C144.492 291.664 145.063 291.506 145.562 291.205C146.089 290.883 146.545 290.458 146.902 289.954C147.28 289.446 147.577 288.884 147.786 288.287C148.002 287.702 148.113 287.084 148.115 286.461C148.097 285.772 147.931 285.094 147.63 284.474ZM67.6117 286.369C67.1291 286.528 66.6235 286.607 66.1152 286.602C65.2487 286.637 64.3919 286.41 63.6577 285.949C63.0329 285.528 62.5535 284.926 62.2848 284.223C62.9231 283.685 63.635 283.241 64.3991 282.903C65.5908 282.344 66.8131 281.851 68.0602 281.428C68.2676 282.143 68.4206 282.873 68.5178 283.611C68.6094 284.351 68.7055 285.095 68.8062 285.835C68.4349 286.066 68.0328 286.245 67.6117 286.365V286.369ZM91.2854 287.579C89.4775 287.939 87.6372 288.112 85.7937 288.095C85.3243 288.096 84.8553 288.07 84.3888 288.018C83.9312 287.967 83.5788 287.917 83.295 287.867C83.9232 287.087 84.5971 286.344 85.3132 285.643C86.0028 284.96 86.7399 284.327 87.5191 283.748C88.2033 283.231 88.9358 282.782 89.7066 282.406C90.3005 282.092 90.9573 281.916 91.6287 281.89C92.0794 281.888 92.5248 281.988 92.9308 282.183C93.3368 282.379 93.6928 282.664 93.9718 283.017C94.6762 283.931 95.1019 285.028 95.1983 286.177C93.98 286.855 92.6579 287.327 91.2854 287.575V287.579ZM109.216 290.164C108.809 290.523 108.28 290.714 107.738 290.698C106.943 290.692 106.166 290.468 105.491 290.05C104.608 289.457 103.868 288.677 103.321 287.767C103.648 287.23 104.079 286.765 104.589 286.397C105.045 286.061 105.597 285.88 106.163 285.881C106.886 285.9 107.586 286.132 108.177 286.547C108.991 287.132 109.699 287.852 110.268 288.675C110.013 289.231 109.656 289.734 109.216 290.159V290.164ZM145.827 288.337C145.348 288.627 144.795 288.773 144.234 288.757C143.49 288.75 142.763 288.532 142.138 288.127C141.344 287.593 140.661 286.91 140.125 286.118C140.445 285.479 140.858 284.891 141.351 284.374C141.539 284.158 141.769 283.984 142.027 283.863C142.286 283.741 142.567 283.674 142.852 283.666C143.217 283.674 143.575 283.758 143.905 283.913C144.304 284.099 144.673 284.346 144.999 284.643C145.381 284.986 145.723 285.37 146.019 285.789C146.346 286.25 146.623 286.744 146.843 287.264C146.61 287.698 146.265 288.062 145.845 288.319L145.827 288.337Z" fill="#e2e2e2"/>
<path d="M80.087 190.054L85.7159 182.483C88.2009 185.356 91.8666 188.228 94.7452 189.534L102.205 180.524C99.3262 178.698 94.7452 175.3 92.3883 172.305L85.7159 180.524C82.3958 178.551 79.4317 176.035 76.9476 173.081L70.1425 181.698C72.3529 185.223 76.9338 188.748 80.087 190.054Z" fill="#e2e2e2"/>
<path d="M121.819 216.69C125.746 219.827 130.848 227.138 132.157 232.883C128.624 235.623 120.259 236.929 111.742 236.929C107.223 236.958 102.71 236.565 98.2644 235.755C102.058 230.924 104.543 225.047 104.543 219.435C104.543 208.987 96.3057 198.018 88.9835 198.018C80.476 198.018 71.5932 210.293 71.5932 222.435C71.5932 227.791 74.5999 232.75 76.8286 235.362C68.8428 237.714 54.0564 239.413 42.1486 239.413C19.2666 239.413 10.2191 234.449 8.78211 222.06C8.61399 220.498 8.52693 218.928 8.52126 217.357C8.66557 214.834 9.10326 212.336 9.82553 209.914L6.16441 212.398C3.94028 213.964 1.18987 220.229 1.18987 228.198C1.18987 247.518 11.2579 256.007 38.7484 256.007C56.8068 256.007 72.7693 252.354 85.4643 245.824C91.8712 250.002 102.214 252.875 111.765 252.875C122.236 252.875 130.35 249.221 134.926 242.034C138.587 236.029 140.294 230.938 140.294 223.887C140.294 215.667 135.974 206.649 131.004 200.776L121.819 216.69ZM87.2719 232.216C82.2974 229.997 77.9818 225.293 77.2039 220.462C79.1671 216.809 83.7481 213.412 87.4138 213.412C92.2556 213.412 96.3103 217.855 98.0127 222.544C96.0403 226.093 91.4593 230.134 87.2719 232.23V232.216Z" fill="#e2e2e2"/>
<path d="M134.381 174.908L127.974 183.397C124.865 181.186 122.127 178.498 119.86 175.433L112.401 184.566C114.625 188.091 119.206 191.616 122.345 192.922L127.974 185.351C130.459 188.223 134.125 191.096 137.004 192.402L144.463 183.392C141.58 181.565 136.866 178.173 134.381 174.908Z" fill="#e2e2e2"/>
<path d="M163.561 235.887C157.41 235.887 154.531 238.888 154.531 244.372C154.531 249.596 157.021 252.861 163.561 252.861C169.711 252.861 172.196 249.463 172.196 244.372C172.196 239.148 169.327 235.887 163.561 235.887Z" fill="#e2e2e2"/>
<path d="M305.804 261.085L299.397 269.574C296.289 267.362 293.551 264.674 291.283 261.61L283.828 270.743C286.052 274.268 290.629 277.793 293.773 279.099L299.397 271.528C301.882 274.401 305.548 277.273 308.426 278.579L315.886 269.569C313.026 267.743 308.294 264.35 305.804 261.085Z" fill="#e2e2e2"/>
<path d="M349.12 261.217L342.713 269.702C339.967 267.875 336.562 264.35 334.599 261.738L327.139 270.871C329.363 274.264 333.944 277.789 337.084 279.09L342.713 271.519C345.198 274.392 348.863 277.264 351.742 278.57L359.202 269.56C356.314 267.875 351.605 264.35 349.12 261.217Z" fill="#e2e2e2"/>
<path d="M343.23 276.099L336.558 284.721C338.782 287.986 342.575 290.858 346.369 292.552L353.829 283.561C349.774 281.848 345.715 278.994 343.23 276.099Z" fill="#e2e2e2"/>
<path d="M417.949 220.608C420.827 224.134 422.923 229.485 423.44 235.362C415.853 234.842 409.711 230.403 406.965 225.047L407.881 219.955L401.858 222.567C398.851 231.97 395.579 236.408 391.52 236.408C388.248 236.408 384.587 232.883 383.411 227.275L384.454 222.837L378.569 225.188C375.823 233.02 370.455 236.938 364.565 236.938C354.094 236.938 347.028 232.371 342.974 218.398L337.738 224.654L338.393 230.271C334.466 234.837 328.97 236.929 321.002 236.929C310.536 236.929 303.612 232.23 299.544 218.389H299.411L294.157 224.654L294.812 230.271C290.89 234.837 285.393 236.929 277.421 236.929C270.877 236.929 265.381 234.449 254.393 222.567L232.669 198.931L268.131 185.616L275.042 168.117L227.42 188.095C222.317 190.315 220.354 192.406 220.354 196.977C220.354 202.069 221.923 205.722 226.376 212.119C233.442 222.047 235.927 226.613 236.71 232.623C233.831 235.362 227.68 236.929 218.784 236.929H205.567C203.082 236.929 200.597 240.326 200.597 245.025C200.597 249.724 203.082 252.861 205.567 252.861H218.784C226.898 252.861 235.259 249.989 238.673 245.418C241.684 241.5 243.647 235.755 243.776 230.664C254.901 247.637 262.997 252.861 277.408 252.861C286.83 252.861 293.503 247.769 297.429 239.28H297.69C302.404 248.03 309.337 252.861 320.984 252.861C330.407 252.861 337.079 247.769 341.006 239.28C345.061 247.897 352.904 252.861 364.561 252.861C369.924 252.861 374.505 249.724 378.564 242.153C380.917 248.81 385.104 252.468 390.463 252.468C395.433 252.468 399.492 248.422 402.499 239.413C406.16 246.591 412.443 251.285 418.727 251.285C422.521 251.285 425.399 249.459 429.326 242.153C432.072 237.061 433.252 233.02 433.252 228.312C433.252 221.129 429.98 211.206 425.66 206.635L417.949 220.608Z" fill="#e2e2e2"/>
<path d="M455.768 235.887C449.617 235.887 446.739 238.888 446.739 244.372C446.739 249.596 449.228 252.861 455.768 252.861C461.919 252.861 464.408 249.463 464.408 244.372C464.408 239.148 461.525 235.887 455.768 235.887Z" fill="#e2e2e2"/>
<path d="M561.24 261.085L554.833 269.574C551.726 267.362 548.987 264.674 546.72 261.61L539.265 270.743C541.489 274.268 546.065 277.793 549.209 279.099L554.833 271.528C557.323 274.401 560.984 277.273 563.863 278.579L571.322 269.569C568.439 267.743 563.73 264.35 561.24 261.085Z" fill="#e2e2e2"/>
<path d="M596.053 271.533C598.538 274.405 602.199 277.277 605.082 278.583L612.537 269.574C609.659 267.875 604.95 264.35 602.469 261.217L596.062 269.702C593.316 267.875 589.912 264.35 587.948 261.738L580.489 270.871C582.713 274.264 587.294 277.789 590.433 279.09L596.053 271.533Z" fill="#e2e2e2"/>
<path d="M596.575 276.099L589.898 284.721C592.122 287.986 595.916 290.858 599.71 292.552L607.169 283.543C603.119 281.848 599.051 278.994 596.575 276.099Z" fill="#e2e2e2"/>
<path d="M599.586 242.007C603.247 236.002 604.95 230.91 604.95 223.86C604.95 215.64 600.63 206.621 595.66 200.749L586.507 216.677C590.433 219.814 595.536 227.125 596.845 232.869C593.312 235.609 584.946 236.915 576.43 236.915C565.963 236.915 559.039 232.216 554.971 218.375H554.838L549.598 224.654L550.253 230.271C546.326 234.837 540.83 236.929 532.862 236.929C527.37 236.929 522.657 233.664 514.415 224.526L507.477 237.714C513.884 244.765 517.028 250.902 517.293 254.427C513.888 263.176 501.198 271.921 481.437 277.67L484.055 281.456L506.937 286.287C519.751 276.099 523.815 265.135 523.815 257.167C523.815 254.687 523.293 251.687 522.639 250.116L523.032 249.856C526.304 251.948 529.183 252.861 532.844 252.861C542.262 252.861 548.939 247.769 552.861 239.28H553.126C557.836 248.03 564.769 252.861 576.416 252.861C586.891 252.861 595.005 249.203 599.586 242.007Z" fill="#e2e2e2"/>
<path d="M85.3087 173.994L92.5073 164.985C89.4961 163.158 84.9151 159.108 83.0845 156.628L75.625 165.898C77.5883 168.51 82.5628 172.821 85.3087 173.994Z" fill="#e2e2e2"/>
</svg>
