<svg  xmlns="http://www.w3.org/2000/svg" viewBox="0 0 649.247 481.306">
  <g>
    <path id="Path_496" data-name="Path 496" d="M483.232,96.817,402.5,123.194l5.663,18.468,80.735-26.377Z" transform="translate(-396.968 -95.005)" fill="#ededed"/>
    <path id="Path_497" data-name="Path 497" d="M480.52,115.838l-80.735,26.377,5.663,18.468,80.735-26.377Z" transform="translate(-399.785 -75.243)" fill="#ededed"/>
    <path id="Path_498" data-name="Path 498" d="M450.289,150.681a41.27,41.27,0,0,0-8.837-3.725,44.549,44.549,0,0,0-13.506-1.862q-10.674,0-17.338,5.774t-6.67,19.185l.02,268.2,46.352,0Z" transform="translate(-395.469 -44.846)" fill="#ededed"/>
    <path id="Path_499" data-name="Path 499" d="M685.7,130.423l5.634,4.276q-5.38,6.288-11.206,1.864a13.533,13.533,0,0,1-4.357-5.648l-8.558,6.547a19.965,19.965,0,0,0,7,8.66q7.187,5.453,14.768,3.852t14.54-11.374l7.422-10.419q5.875-8.246,4.967-15.794t-8.1-13A16.846,16.846,0,0,0,694.366,96.2a18.46,18.46,0,0,0-12.413,7.968q-4.952,6.949-3.807,14.167A18.453,18.453,0,0,0,685.7,130.423Zm15.309-21.489q3.3,2.5,2.692,5.887a15.258,15.258,0,0,1-2.624,6.2l-2.938,4.125-5.44-4.129q-5.245-3.982-1.224-9.624Q695.957,105.1,701.007,108.934Z" transform="translate(-121.931 -95.929)" fill="#ededed"/>
    <path id="Path_500" data-name="Path 500" d="M711.342,164.174a25.492,25.492,0,0,0-6.333-17.321q-6.34-7.264-15.005-7.263a19.49,19.49,0,0,0-15.5,7.265,25.887,25.887,0,0,0-6.166,17.323,26.6,26.6,0,0,0,6.17,17.5,19.285,19.285,0,0,0,15.5,7.451q8.665,0,15-7.453A26.2,26.2,0,0,0,711.342,164.174Z" transform="translate(-120.764 -50.564)" fill="#ededed"/>
    <path id="Path_501" data-name="Path 501" d="M683.053,193.405a25.868,25.868,0,0,0,6.17,17.321,19.48,19.48,0,0,0,15.5,7.261q8.665,0,15.168-7.265a26.324,26.324,0,0,0,0-34.642q-6.5-7.261-15.17-7.261a19.486,19.486,0,0,0-15.5,7.265A25.86,25.86,0,0,0,683.053,193.405Z" transform="translate(-105.471 -20.196)" fill="#ededed"/>
    <path id="Path_502" data-name="Path 502" d="M1024.022,262.386a35,35,0,0,0-12.768-2.233q-10.224,0-16.442,5.4T988.586,284l.008,110.259-21.069,0q-13.1,0-17.721-7.82t-4.63-20.115l-.006-100.576q-2.875-1.116-8.621-3.352a35.009,35.009,0,0,0-12.77-2.233q-10.221,0-16.44,5.4T901.111,284l.006,81.2q0,14.161-5.9,21.605a19.125,19.125,0,0,1-15.8,7.453q-10.222,0-16.122-7.448t-5.909-21.605l-.006-99.456-8.619-3.352a35.029,35.029,0,0,0-12.772-2.233q-10.222,0-16.44,5.4t-6.223,18.439l0,69.658a147.482,147.482,0,0,1-.956,18.066,36.168,36.168,0,0,1-3.672,12.666,16.935,16.935,0,0,1-7.82,7.451q-5.111,2.428-13.729,2.422l-13.727,0-9.579,0-35.116,0v-6.7q0-27.939-6.39-50.288T704.3,298.921a91.249,91.249,0,0,0-27.938-25.514A86.44,86.44,0,0,0,640.6,262.05l93.853-100.21a39.2,39.2,0,0,0-2.076-3.54,27.841,27.841,0,0,0-5.108-5.772,32.757,32.757,0,0,0-8.3-5.216,28.143,28.143,0,0,0-11.653-2.233,40.5,40.5,0,0,0-9.1.932,37.433,37.433,0,0,0-7.822,2.8,32.333,32.333,0,0,0-7.661,5.4q-3.832,3.545-8.619,8.382l-89.065,97.6q-7.025,7.824-9.1,13.784a32.249,32.249,0,0,0-2.074,10.43q0,9.689,3.992,16.2a78.306,78.306,0,0,0,5.9,8.753,80.338,80.338,0,0,1,14.687-4.284,104.484,104.484,0,0,1,21.709-2.053,58.827,58.827,0,0,1,43.738,19.925q9.255,10.249,15.007,26.075t5.748,37.807l0,7.45-119.72.012h-9.579l-37.35,0-.008-128.514q-2.875-1.116-8.78-3.352A36.321,36.321,0,0,0,496.3,260.2q-10.221,0-16.44,5.4t-6.225,18.439l.012,173.213q0,16.76-6.861,23.281t-18.675,6.521a42.3,42.3,0,0,1-14.049-2.235q-6.389-2.233-7.981-2.979l-10.534,34.645c.424.243,1.8.93,4.149,2.047a66.989,66.989,0,0,0,8.941,3.352,113.013,113.013,0,0,0,12.45,2.979,80.379,80.379,0,0,0,14.687,1.3,79.344,79.344,0,0,0,23.783-3.54,46.505,46.505,0,0,0,19.793-12.3q8.457-8.756,13.567-23.1t5.106-36.319V438.254l37.35,0,9.579,0,198.892-.018h9.577l22.347,0q12.13,0,20.751-6.521a74.978,74.978,0,0,0,15.005-15.087A75.733,75.733,0,0,0,851.8,435.242q11.014,6.7,27.616,6.7,16.28,0,27.135-6.708t20.431-19q5.426,12.3,13.411,17.136t21.071,4.841l71.193-.008-.012-172.466Z" transform="translate(-383.408 -44.861)" fill="#ededed"/>
    <path id="Path_503" data-name="Path 503" d="M674.141,217.991a19.982,19.982,0,0,0,15.67-7.265,26.844,26.844,0,0,0,0-34.643,19.99,19.99,0,0,0-15.672-7.263q-8.671,0-15,7.265a26.85,26.85,0,0,0,0,34.643Q665.469,217.992,674.141,217.991Z" transform="translate(-136.9 -20.194)" fill="#ededed"/>
  </g>
  <g transform="translate(211.016 426.965)">
    <path id="Path_545" data-name="Path 545" d="M544.944,305.972H504.808a12.876,12.876,0,0,0-.95,2.223,10.651,10.651,0,0,0-.583,3.6,5.572,5.572,0,0,0,1.421,4.113q1.419,1.425,4.771,1.421h11.657v38.608h12.163V317.333H549.6a12.971,12.971,0,0,0,.948-2.221,10.726,10.726,0,0,0,.583-3.607,5.572,5.572,0,0,0-1.421-4.113Q548.3,305.968,544.944,305.972Z" transform="translate(-503.275 -304.659)" fill="#ededed"/>
    <path id="Path_546" data-name="Path 546" d="M567.305,305.972a7.941,7.941,0,0,0-4.588,1.2q-1.753,1.2-1.75,4.188v12.895H541.592V307.136q-.437-.144-2.076-.656a12.682,12.682,0,0,0-3.752-.508,7.957,7.957,0,0,0-4.59,1.2q-1.746,1.2-1.747,4.188v44.581h12.165V335.764h19.376v20.178h12.165V307.136q-.437-.144-2.076-.656A12.681,12.681,0,0,0,567.305,305.972Z" transform="translate(-476.103 -304.659)" fill="#ededed"/>
    <path id="Path_547" data-name="Path 547" d="M603.4,342.662q-1.93-4.842-4.188-10.234t-4.372-10.309q-2.113-4.918-3.9-8.849a62.864,62.864,0,0,0-2.877-5.756c-.1-.047-.34-.194-.728-.436a11.782,11.782,0,0,0-1.531-.767,14.17,14.17,0,0,0-2.147-.689,10.372,10.372,0,0,0-2.441-.294,9.966,9.966,0,0,0-5.283,1.24,9.386,9.386,0,0,0-3.387,4.37q-2.621,5.9-5.354,12.24t-5.246,12.417q-2.508,6.086-4.7,11.51t-3.717,9.506h12.6q1.019-2.621,1.929-5.171t2.076-5.611h21.2q1.379,3.5,2.328,6.084t1.751,4.7h13.4q-.584-1.6-2.041-5.352T603.4,342.662Zm-28.882-7.832q.8-2.113,1.749-4.516t1.819-4.7c.585-1.533,1.115-2.916,1.6-4.155s.873-2.2,1.164-2.875q.434.948,1.2,2.875t1.639,4.225q.872,2.3,1.821,4.737t1.674,4.406Z" transform="translate(-451.05 -305.328)" fill="#ededed"/>
    <path id="Path_548" data-name="Path 548" d="M621.291,305.972a7.959,7.959,0,0,0-4.592,1.2q-1.746,1.2-1.747,4.188v23.966q-.945-1.532-2.622-4.043t-3.642-5.464q-1.967-2.948-4.043-6.046t-3.862-5.646q-1.786-2.548-3.06-4.294a25.576,25.576,0,0,0-1.635-2.114,10.6,10.6,0,0,0-1.97-1.058,10.071,10.071,0,0,0-4.08-.689,10.332,10.332,0,0,0-2.437.29,6.029,6.029,0,0,0-2.151.983,4.912,4.912,0,0,0-1.529,1.933,7.344,7.344,0,0,0-.583,3.13v43.634h12.02V325.2q1.312,1.9,3.134,4.59t3.823,5.754q2,3.059,4.078,6.227t3.9,5.94q1.82,2.768,3.205,4.951t2.041,3.279h11.435V307.136q-.361-.144-1.966-.656A12.31,12.31,0,0,0,621.291,305.972Z" transform="translate(-420.091 -304.659)" fill="#ededed"/>
    <path id="Path_549" data-name="Path 549" d="M645.032,342.119q-2.587-3.245-5.356-6.417t-5.828-6.46q1.019-1.159,2.734-2.979t3.75-3.89q2.037-2.071,4.151-4.217t3.9-3.964q1.783-1.82,3.1-3.128c.873-.873,1.433-1.429,1.674-1.67a8.085,8.085,0,0,0-.946-.948,9.206,9.206,0,0,0-1.639-1.13,11.42,11.42,0,0,0-2.367-.946,10.974,10.974,0,0,0-3.058-.4,8.325,8.325,0,0,0-4.37,1.056,20.393,20.393,0,0,0-3.061,2.222q-1.676,1.526-3.717,3.56t-4.149,4.288q-2.117,2.254-4.188,4.472t-3.754,4.1V307.134c-.29-.1-.983-.316-2.074-.654a12.638,12.638,0,0,0-3.754-.508,7.945,7.945,0,0,0-4.588,1.2q-1.75,1.2-1.747,4.188v44.581H621.9V334.124q2.04,2.046,4.516,4.743t4.918,5.656q2.441,2.958,4.771,5.911t4.225,5.507h14.934q-2.621-3.792-5.136-7.185T645.032,342.119Z" transform="translate(-392.659 -304.659)" fill="#ededed"/>
    <path id="Path_550" data-name="Path 550" d="M690.017,307.938a9.153,9.153,0,0,0-1.49-.875,13.185,13.185,0,0,0-2.078-.765,9.134,9.134,0,0,0-2.477-.326,8.735,8.735,0,0,0-2.912.436,8.442,8.442,0,0,0-2.151,1.093,7.254,7.254,0,0,0-1.529,1.456c-.414.534-.765,1.022-1.056,1.458q-1.168,1.82-2.512,3.933c-.9,1.409-1.821,2.84-2.771,4.3s-1.892,2.867-2.84,4.225-1.855,2.622-2.73,3.786q-1.312-1.746-3.134-4.37t-3.75-5.426q-1.933-2.8-3.68-5.428t-2.84-4.3a11.979,11.979,0,0,0-1.784-.693,11.017,11.017,0,0,0-3.46-.471,6.524,6.524,0,0,0-3.97,1.2,4.336,4.336,0,0,0-1.639,3.752,6.651,6.651,0,0,0,.512,2.4A20.315,20.315,0,0,0,643,315.988a26.125,26.125,0,0,0,1.676,2.585q.911,1.239,1.639,2.257.945,1.315,2.441,3.279t3.242,4.263q1.746,2.291,3.642,4.7t3.568,4.443v18.43h12.167v-18.43q1.382-1.89,3.242-4.406t3.825-5.316q1.964-2.8,3.931-5.719t3.68-5.5q1.707-2.581,2.948-4.661t1.821-3.313A8.29,8.29,0,0,0,690.017,307.938Z" transform="translate(-359.959 -304.659)" fill="#ededed"/>
    <path id="Path_551" data-name="Path 551" d="M711.617,312.942a26.963,26.963,0,0,0-8.594-5.573,28.735,28.735,0,0,0-21.273,0,26.92,26.92,0,0,0-8.594,5.573,26.156,26.156,0,0,0,0,37.369,26.959,26.959,0,0,0,8.594,5.575,28.787,28.787,0,0,0,21.273,0,27,27,0,0,0,8.594-5.575,26.156,26.156,0,0,0,0-37.369Zm-6.009,24.586a14.875,14.875,0,0,1-2.95,4.732,13.18,13.18,0,0,1-4.516,3.169,15.225,15.225,0,0,1-11.51,0,13.189,13.189,0,0,1-4.518-3.169,14.907,14.907,0,0,1-2.948-4.732,16.024,16.024,0,0,1-1.056-5.9,16.318,16.318,0,0,1,1.056-5.94,14.383,14.383,0,0,1,2.948-4.732,13.556,13.556,0,0,1,4.518-3.134,15.251,15.251,0,0,1,11.51,0,13.547,13.547,0,0,1,4.516,3.134,14.354,14.354,0,0,1,2.95,4.732,16.362,16.362,0,0,1,1.056,5.94A16.067,16.067,0,0,1,705.609,337.528Z" transform="translate(-334.866 -305.328)" fill="#ededed"/>
    <path id="Path_552" data-name="Path 552" d="M739.659,306.48a12.7,12.7,0,0,0-3.754-.508,7.946,7.946,0,0,0-4.588,1.2q-1.749,1.2-1.747,4.188v21.2a27.491,27.491,0,0,1-.548,5.789,10.839,10.839,0,0,1-1.821,4.225,7.906,7.906,0,0,1-3.35,2.585,15.91,15.91,0,0,1-10.417,0,7.885,7.885,0,0,1-3.352-2.585,10.807,10.807,0,0,1-1.821-4.225,27.51,27.51,0,0,1-.544-5.789V307.136q-.441-.144-2.078-.656a12.675,12.675,0,0,0-3.75-.508,7.948,7.948,0,0,0-4.59,1.2q-1.75,1.2-1.75,4.188V333.8q0,11.072,5.974,17.262t17.119,6.193q11.142,0,17.117-6.193t5.972-17.262V307.136C741.444,307.04,740.75,306.82,739.659,306.48Z" transform="translate(-303.502 -304.659)" fill="#ededed"/>
  </g>
</svg>
